<svg xmlns="http://www.w3.org/2000/svg" width="100px" height="50px" viewBox="0 0 1180.932 485.071" fill="var(--LOGO-COLOR)" stroke="var(--LOGO-COLOR)"><path d="M120.523 471.103L68.504 384.76l405.988-245.075v24.129l22.832-12.702-2.54 33.013-2.54 12.702h29.178l-1.266 33.013zm-35.524-82.534l39.328 64.759 383.151-231.107v-13.968h-30.451l5.071-35.555-21.567 11.426v-22.852z"/><path d="M0 485.071l77.391-110.472 55.826 92.695zm76.118-87.62l-49.48 71.108 86.268-11.426zm1055.569 41.907c-6.345 0-12.691-1.267-17.762-3.809L721.893 248.885l20.301-12.702-22.832-11.426 29.178-16.51 11.416-5.075-15.222-24.129 27.912-17.777 384.42 182.856c10.151 5.075 17.762 12.702 21.567 22.852 3.805 10.16 2.54 21.586-1.266 31.746l-8.885 17.777c-6.345 13.977-21.567 22.861-36.788 22.861zM748.536 247.617L1119 424.122c13.956 6.351 31.718 0 38.064-13.968l8.885-17.777c3.805-6.351 3.805-13.968 1.266-21.586s-7.611-12.702-13.956-16.51L773.913 175.234l-11.416 7.618 16.496 25.394-24.108 11.426-8.885 5.084 21.567 11.426z"/><path d="M1150.718 345.391l-11.416-6.351 10.151-20.319-185.237-97.778 6.345-11.426 195.377 104.13zM543.14 73.967l12.036 4.012-12.841 38.548-12.036-4.012zm64.025 49.228l11.345 5.678-12.478 24.988-11.345-5.678zm37.336 29.183h12.691v12.702h-12.691zm88.81-50.792h12.691v12.702h-12.691zM695.25 50.793h12.691v12.702H695.25zM606.44 0h12.691v12.702H606.44zm-37.336 275.574l11.345 5.678-12.478 24.988-11.345-5.678zm126.146 16.485h12.691v12.702H695.25zm-101.497-76.19h12.691v12.702h-12.691zm-37.336-16.485l11.345 5.678-12.478 24.988-11.345-5.678z"/></svg>